# xmcd CD database file
#
# Track frame offsets:
#	150
#	28823
#	50718
#	69562
#	93246
#	118603
#	143319
#	162713
#
# Disc length: 2584 seconds
#
# Revision: 0
# Processed by: cddbd v1.5.1PL0 Copyright (c) Steve Scherf et al.
# Submitted via: CDex 1.60beta1
#
DISCID=6c0a1608
DTITLE=LOVEマシーン - BPM130overFinal
DYEAR=1900
DGENRE=未分類 (日本)
TTITLE0=Midnight - Original
TTITLE1=field path - AIR
TTITLE2=Technical Power - ToHeart
TTITLE3=Battle Scene - Sizuku
TTITLE4=altair and vega - AIR
TTITLE5=Anxiety (Remix) - Moon.
TTITLE6=Cold rain - WHITE ALBUM
TTITLE7=Last regrets (Remix) - Kanon
EXTD=
EXTT0=
EXTT1=
EXTT2=
EXTT3=
EXTT4=
EXTT5=
EXTT6=
EXTT7=
PLAYORDER=
